<?xml version="1.0" encoding="UTF-8" standalone="no"?>
<!DOCTYPE svg PUBLIC "-//W3C//DTD SVG 1.1//EN" "http://www.w3.org/Graphics/SVG/1.1/DTD/svg11.dtd">
<svg width="100%" height="100%" viewBox="0 0 1232 552" version="1.1" xmlns="http://www.w3.org/2000/svg" xmlns:xlink="http://www.w3.org/1999/xlink" xml:space="preserve" xmlns:serif="http://www.serif.com/" style="fill-rule:evenodd;clip-rule:evenodd;stroke-linecap:round;stroke-linejoin:round;stroke-miterlimit:1.5;">
    <g transform="matrix(1,0,0,1,-3476.14,-2168)">
        <g id="Plan-de-travail14" serif:id="Plan de travail14" transform="matrix(0.934625,0,0,1,307.092,-0.542982)">
            <rect x="3390.72" y="2168.54" width="1317.62" height="551.931" style="fill:none;"/>
            <g transform="matrix(-1.18503,0.190182,-0.187658,-1.02141,6679.04,4039.18)">
                <path d="M1910.87,2085.04C1739.98,2116.79 1548.72,2108.8 1431.91,1992.21C1322.95,1883.47 1467.02,1732.59 1564.74,1699.3C1637.76,1674.42 1725.48,1694.57 1802.35,1696.12C1939.91,1698.88 2207.43,1715.29 2323.24,1802.21C2518.87,1949.05 2423.35,2136.88 2192.37,2154.42C2074.94,2163.34 1961.51,2128.58 1844.93,2131.75" style="fill:none;stroke:rgb(0,5,255);stroke-width:12.8px;"/>
            </g>
        </g>
    </g>
</svg>
